<svg width="48" height="48" viewBox="0 0 48 48" xmlns="http://www.w3.org/2000/svg">
  <defs>
    <filter id="glow">
      <feGaussianBlur stdDeviation="2" result="coloredBlur"/>
      <feMerge>
        <feMergeNode in="coloredBlur"/>
        <feMergeNode in="SourceGraphic"/>
      </feMerge>
    </filter>
  </defs>
  
  <!-- Left Bat Wing -->
  <path d="M 8 24 Q 2 18, 1 22 Q 0 24, 3 26 Q 6 28, 9 26 Q 7 28, 5 30 Q 3 32, 6 33 Q 9 34, 11 32 Q 10 34, 9 36 Q 8 38, 11 38 Q 14 38, 16 35 L 18 28 Z" 
        fill="#ff6b00" 
        stroke="#8b0000" 
        stroke-width="1"
        filter="url(#glow)"/>
  
  <!-- Right Bat Wing -->
  <path d="M 40 24 Q 46 18, 47 22 Q 48 24, 45 26 Q 42 28, 39 26 Q 41 28, 43 30 Q 45 32, 42 33 Q 39 34, 37 32 Q 38 34, 39 36 Q 40 38, 37 38 Q 34 38, 32 35 L 30 28 Z" 
        fill="#ff6b00" 
        stroke="#8b0000" 
        stroke-width="1"
        filter="url(#glow)"/>
  
  <!-- Letter M with Shield Background -->
  <path d="M 24 12 L 30 28 L 28 38 Q 26 42, 24 42 Q 22 42, 20 38 L 18 28 Z" 
        fill="#0a0a0a" 
        stroke="#ff6b00" 
        stroke-width="2"
        filter="url(#glow)"/>
  
  <!-- Letter M -->
  <text x="14" y="34" 
        font-family="Impact, Arial Black, sans-serif" 
        font-size="24" 
        font-weight="900" 
        fill="#ff6b00"
        stroke="#8b0000"
        stroke-width="0.5"
        filter="url(#glow)">M</text>
</svg>
